<?xml version="1.0" encoding="utf-8"?>
<!-- Generator: Adobe Illustrator 14.0.0, SVG Export Plug-In . SVG Version: 6.00 Build 43363)  -->
<!DOCTYPE svg PUBLIC "-//W3C//DTD SVG 1.0//EN" "http://www.w3.org/TR/2001/REC-SVG-20010904/DTD/svg10.dtd">
<svg version="1.0" id="Layer_1" xmlns="http://www.w3.org/2000/svg" xmlns:xlink="http://www.w3.org/1999/xlink" x="0px" y="0px"
	 width="100px" height="84.797px" viewBox="0 0 100 84.797" enable-background="new 0 0 100 84.797" xml:space="preserve">
<path d="M20.222,80.867c9.106,0,16.495-7.389,16.495-16.506c0-9.095-7.388-16.483-16.495-16.483
	c-9.083,0-16.472,7.389-16.472,16.483C3.75,73.479,11.139,80.867,20.222,80.867z M0,64.361C0,53.189,9.072,44.15,20.222,44.15
	c11.184,0,20.245,9.039,20.245,20.211c0,11.184-9.061,20.233-20.245,20.233C9.072,84.595,0,75.545,0,64.361z"/>
<path d="M79.777,81.058c9.084,0,16.473-7.377,16.473-16.494c0-9.106-7.389-16.483-16.473-16.483
	c-9.105,0-16.494,7.377-16.494,16.483C63.283,73.681,70.672,81.058,79.777,81.058z M59.533,64.563
	c0-11.184,9.072-20.223,20.244-20.223c11.15,0,20.223,9.039,20.223,20.223s-9.072,20.233-20.223,20.233
	C68.605,84.797,59.533,75.747,59.533,64.563z"/>
<path d="M59.589,15.203c4.2,0,7.612-3.391,7.612-7.59c0-4.2-3.412-7.613-7.612-7.613c-4.199,0-7.612,3.414-7.612,7.613
	C51.977,11.812,55.39,15.203,59.589,15.203z"/>
<path d="M59.903,33.663c-1.101,0.022-2.29-0.528-3.167-1.909l-4.939-7.725L41.602,34.123l9.454,4.975
	c3.885,1.864,3.301,5.277,3.301,5.277v21.401c0,2.425-1.954,4.401-4.379,4.401s-4.379-1.977-4.379-4.401V48.642l-16.394-9.106
	c-1.954-1.089-3.279-3.178-3.279-5.558c0-1.64,0.606-3.145,1.639-4.267l16.079-16.113c1.999-2.257,4.783-1.897,4.783-1.897
	c3.369,0,5.143,2.942,5.143,2.942l8.354,13.092l12.689-0.022c4.559,0,4.559,5.951,0,5.951H59.903z"/>
</svg>
