<?xml version="1.0" encoding="utf-8"?>
<!-- Generator: Adobe Illustrator 15.1.0, SVG Export Plug-In . SVG Version: 6.00 Build 0)  -->
<!DOCTYPE svg PUBLIC "-//W3C//DTD SVG 1.1//EN" "http://www.w3.org/Graphics/SVG/1.1/DTD/svg11.dtd">
<svg version="1.1" id="Layer_1" xmlns="http://www.w3.org/2000/svg" xmlns:xlink="http://www.w3.org/1999/xlink" x="0px" y="0px"
	 width="27px" height="100px" viewBox="0 0 27 100" enable-background="new 0 0 27 100" xml:space="preserve">
<rect x="8" width="11" height="7"/>
<path d="M27,95c0,2-2,5-4.999,5C18,100,9,100,4.999,100C2,100,0,97,0,95c0-12,0-42,0-57.001C0,31,8,30,8,27c0-3.999,0-16,0-16h11
	c0,0,0,12,0,16c0,3,8,4,8,10.999C27,51,27,82,27,95z"/>
</svg>
