<svg xmlns="http://www.w3.org/2000/svg" xmlns:xlink="http://www.w3.org/1999/xlink" version="1.1" id="Livello_1" x="0px" y="0px" width="100px" height="100px" viewBox="0 0 100 100" enable-background="new 0 0 100 100" xml:space="preserve">
<path d="M50,54.562c9.942-0.004,19.444-1.436,27.672-4.06L50,31.213h50C100,18.56,77.104,7.877,50,7.877  c-27.104,0-50,10.683-50,23.336C0,43.867,22.896,54.562,50,54.562z"/>
<path d="M80.136,54.686c-8.671,2.978-18.758,4.578-29.276,4.582c-24.302,0-44.376-7.025-50.859-17.68v24.846  c0,14.188,22.769,25.689,50.859,25.689c10.909,0,20.992-1.749,29.276-4.702V54.686z"/>
<g>
	<polygon points="84.846,68.561 100,68.561 100,35.923 64.994,35.923 82.826,48.354 84.846,49.762 84.846,52.217  "/>
</g>
</svg>