<svg xmlns="http://www.w3.org/2000/svg" xmlns:xlink="http://www.w3.org/1999/xlink" version="1.1" id="Calque_1" x="0px" y="0px" width="100px" height="73.1481481481px" viewBox="0 0 108.666 79" enable-background="new 0 0 108.666 79" xml:space="preserve">
<g>
	<path d="M67.484,35.67c0,0-0.5,1.552-0.578,1.759s-0.558,0.851-0.454,0.851c0.103,0,1.162,0.491,1.162,0.491l4.114,1.278   l-0.059,1.938c-0.361,0.053-1.782,0.994-1.989,1.459c-0.135,0.304-0.436,0.846-0.725,1.222c3.747,1.511,5.94,3.724,6.029,6.2   c0.061,0.442,2.335,8.557,2.465,10.383h17.312c0.015-0.075-0.521-10.573-0.526-10.652c0,0-0.995-2.528-2.57-2.785   c-1.576-0.259-3.599-0.808-4.445-1.447c-0.495-0.376-2.106-1.027-2.853-1.299c-0.349-0.125-0.944-1.156-1.15-1.621   s-1.628-1.406-1.99-1.459l-0.058-1.938l4.113-1.278c0,0,1.061-0.491,1.163-0.491c0.104,0-0.491-0.78-0.568-0.988   c-0.078-0.207-0.465-1.621-0.465-1.621s1.389,1.698,2.093,2.015c0,0-1.383-2.596-1.795-4.042c-0.414-1.447-0.685-3.707-0.685-3.913   c0-0.208-0.853-6.278-1.318-7.285c-0.465-1.009-1.096-2.377-2.176-3.049s-2.681-1.628-4.98-1.756   c-0.034-0.002-0.068-0.002-0.103-0.005c-0.034,0.003-0.068,0.003-0.104,0.005c-2.298,0.128-3.899,1.084-4.979,1.756   c-1.078,0.672-1.71,2.04-2.176,3.049c-0.465,1.007-1.317,7.077-1.317,7.285c0,0.206-0.241,2.558-0.654,4.004   c-0.413,1.447-1.825,3.951-1.825,3.951C66.097,37.368,67.484,35.67,67.484,35.67z" style="fill:#ffffff;"/>
</g>
<g>
	<path d="M31.682,52.484v-0.106l0.011-0.104c1.12-4.836,6.947-7.147,10.128-8.533c0.005-0.002-0.005,0.002,0,0   c-1.931-0.882-2.95-1.541-3.427-1.649c-0.195-0.391-0.614-3.345-0.614-3.345s2.321-2.051,2.842-5.978c0,0,1.143,0.632,1.214-1.758   c0.053-1.841,0.371-2.56-0.882-3.098c0,0,0.09-1.274,0.13-2.405c0.062-1.676,0.371-4.028-2.529-5.92   c-0.412-0.269-2.539-1.452-2.553-1.446c-0.758-0.46-1.722-0.753-1.722-0.753l0.031,0.691c-0.052-0.051-0.104-0.105-0.152-0.152   c-0.191-0.197-0.299-0.959-0.28-1.261c0.037-0.536,0.037-0.536,0.037-0.536c-1.374,1.025-2.321,2.35-2.321,2.35l0.123-1.281   c0,0-0.255,0.393-3.398,2.355c-3.084,1.925-2.573,4.766-2.488,6.448c0.057,1.13,0.169,1.91,0.169,1.91   c-1.252,0.538-0.596,1.306-0.564,3.147c0.04,2.547,1.324,2.098,1.324,2.098c0.591,3.469,2.414,5.588,2.414,5.588   s-0.516,2.972-0.714,3.349c-0.568,0.127-1.88,1.032-4.633,2.178c-4.057,1.688-2.783,0.709-6.085,2.359   c-5.219,2.61-4.184,13.493-4.184,13.493H30L31.682,52.484z" style="fill:#ffffff;"/>
</g>
<g>
	<path d="M76.492,67.25c0-3.103-3.504-16.225-3.504-16.225c0-1.917-2.521-4.107-7.494-5.384c-2.58-0.662-4.744-2.145-4.744-2.145   c-0.319-0.181-0.27-1.857-0.27-1.857l-1.602-0.241c0-0.137-0.136-2.145-0.136-2.145c1.916-0.639,1.718-4.41,1.718-4.41   c1.217,0.67,2.008-2.311,2.008-2.311c1.439-4.145-0.716-3.895-0.716-3.895c0.685-3.102,0-7.635,0-7.635   c-0.958-8.395-15.384-6.116-13.673-3.373c-4.215-0.776-3.254,8.757-3.254,8.757l0.914,2.464c-1.796,1.155-0.548,2.555-0.487,4.167   c0.088,2.377,1.551,1.885,1.551,1.885c0.091,3.924,2.037,4.44,2.037,4.44c0.366,2.464,0.138,2.045,0.138,2.045l-1.734,0.208   c0.077,0.623-0.136,1.671-0.136,1.671c-2.043,0.902-2.478,1.432-4.503,2.312c-3.914,1.704-8.168,3.92-8.924,6.904   s-3,14.766-3,14.766H76.492z" style="fill:#ffffff;"/>
</g>
</svg>